<svg width="40" height="40" viewBox="0 0 40 40" fill="none" xmlns="http://www.w3.org/2000/svg">
<path d="M18.3333 20C16.5 20 14.9306 19.3472 13.625 18.0416C12.3194 16.7361 11.6667 15.1666 11.6667 13.3333C11.6667 11.5 12.3194 9.93052 13.625 8.62496C14.9306 7.3194 16.5 6.66663 18.3333 6.66663C20.1667 6.66663 21.7361 7.3194 23.0417 8.62496C24.3472 9.93052 25 11.5 25 13.3333C25 15.1666 24.3472 16.7361 23.0417 18.0416C21.7361 19.3472 20.1667 20 18.3333 20ZM18.3333 16.6666C19.25 16.6666 20.035 16.3405 20.6883 15.6883C21.3417 15.0361 21.6678 14.2511 21.6667 13.3333C21.6656 12.4155 21.3394 11.6311 20.6883 10.98C20.0372 10.3288 19.2522 10.0022 18.3333 9.99996C17.4144 9.99774 16.63 10.3244 15.98 10.98C15.33 11.6355 15.0033 12.42 15 13.3333C14.9967 14.2466 15.3233 15.0316 15.98 15.6883C16.6367 16.345 17.4211 16.6711 18.3333 16.6666ZM35.6667 38L31.5 33.8333C30.9167 34.1666 30.2917 34.4444 29.625 34.6666C28.9583 34.8888 28.25 35 27.5 35C25.4167 35 23.6461 34.2711 22.1883 32.8133C20.7306 31.3555 20.0011 29.5844 20 27.5C19.9989 25.4155 20.7283 23.645 22.1883 22.1883C23.6483 20.7316 25.4189 20.0022 27.5 20C29.5811 19.9977 31.3522 20.7272 32.8133 22.1883C34.2744 23.6494 35.0033 25.42 35 27.5C35 28.25 34.8889 28.9583 34.6667 29.625C34.4444 30.2916 34.1667 30.9166 33.8333 31.5L38 35.6666C38.3055 35.9722 38.4583 36.3611 38.4583 36.8333C38.4583 37.3055 38.3055 37.6944 38 38C37.6944 38.3055 37.3056 38.4583 36.8333 38.4583C36.3611 38.4583 35.9722 38.3055 35.6667 38ZM30.4583 30.4583C31.2639 29.6527 31.6667 28.6666 31.6667 27.5C31.6667 26.3333 31.2639 25.3472 30.4583 24.5416C29.6528 23.7361 28.6667 23.3333 27.5 23.3333C26.3333 23.3333 25.3472 23.7361 24.5417 24.5416C23.7361 25.3472 23.3333 26.3333 23.3333 27.5C23.3333 28.6666 23.7361 29.6527 24.5417 30.4583C25.3472 31.2638 26.3333 31.6666 27.5 31.6666C28.6667 31.6666 29.6528 31.2638 30.4583 30.4583ZM5 30V28.7083C5 27.7638 5.23611 26.8888 5.70833 26.0833C6.18056 25.2777 6.83333 24.6666 7.66667 24.25C8.83333 23.6388 10.1322 23.1044 11.5633 22.6466C12.9944 22.1888 14.4594 21.89 15.9583 21.75C16.4306 21.6944 16.8333 21.8333 17.1667 22.1666C17.5 22.5 17.6667 22.9027 17.6667 23.375C17.6667 23.8472 17.5 24.2572 17.1667 24.605C16.8333 24.9527 16.4306 25.1538 15.9583 25.2083C14.375 25.4027 13.0417 25.6944 11.9583 26.0833C10.875 26.4722 9.95833 26.8611 9.20833 27.25C8.93056 27.3888 8.71556 27.5905 8.56333 27.855C8.41111 28.1194 8.33444 28.4038 8.33333 28.7083V30H16C16.4722 30 16.8683 30.16 17.1883 30.48C17.5083 30.8 17.6678 31.1955 17.6667 31.6666C17.6656 32.1377 17.5061 32.5338 17.1883 32.855C16.8706 33.1761 16.4744 33.3355 16 33.3333H8.33333C7.41667 33.3333 6.63222 33.0072 5.98 32.355C5.32778 31.7027 5.00111 30.9177 5 30Z" fill="#E2A037"/>
</svg>
